# xmcd CD database file
# Copyright (C) 1993-1998 Ti Kan
#
# Track frame offsets:
#	182
#	11395
#	23520
#	39175
#	50572
#	61770
#	72057
#	82027
#	95687
#	107865
#	119915
#	130355
#
# Disc length: 1895 seconds
#
# Revision: 1
# Processed by: cddbd v1.4b41PL1 Copyright (c) Steve Scherf et al.
# Submitted via: CDValet v3.31 - Copyright (c) 1997 Greg Leichner
#
DISCID=9c07650c
DTITLE=Various Artist - Country Jukebox
DYEAR=1900
DGENRE=
TTITLE0=Oh Lonesome Me - Don Gibson
TTITLE1=Right or Wrong - Wanda Jackson
TTITLE2=Country Bumpkin - Cal Smith
TTITLE3=It Wasn't God Who Made Honky Tonk Angels - Kitty Wells
TTITLE4=Waterloo - Stonewall Jackson
TTITLE5=Bridge Washed Out - Warner Mack
TTITLE6=Please Help Me, I'm Falling - Hank Locklin
TTITLE7=9,999,999 Tears - Dickey Lee
TTITLE8=Queen of the House - Jody Miller
TTITLE9=Girl on the Billboard - Del Reeves
TTITLE10=Six Days on the Road\tDave Dudley
TTITLE11=All The Time - Jack Greene
EXTD=
EXTT0=
EXTT1=
EXTT2=
EXTT3=
EXTT4=
EXTT5=
EXTT6=
EXTT7=
EXTT8=
EXTT9=
EXTT10=
EXTT11=
PLAYORDER=
